<?xml version="1.0" standalone="no"?>
<!DOCTYPE svg PUBLIC "-//W3C//DTD SVG 20010904//EN"
 "http://www.w3.org/TR/2001/REC-SVG-20010904/DTD/svg10.dtd">
<svg version="1.0" xmlns="http://www.w3.org/2000/svg"
 width="1280.000000pt" height="1206.000000pt" viewBox="0 0 1280.000000 1206.000000"
 preserveAspectRatio="xMidYMid meet">
<metadata>
Created by potrace 1.15, written by Peter Selinger 2001-2017
</metadata>
<g transform="translate(0.000000,1206.000000) scale(0.100000,-0.100000)"
fill="#000000" stroke="none">
<path d="M1902 12015 c-110 -55 -194 -129 -242 -214 l-35 -61 -95 6 c-85 6
-100 4 -137 -15 -48 -24 -90 -74 -99 -118 -3 -18 2 -56 15 -97 24 -79 29 -201
8 -193 -38 14 -282 89 -347 106 -122 32 -225 44 -263 32 -43 -15 -105 -78
-117 -122 -15 -50 -12 -157 5 -222 8 -32 15 -66 15 -75 -1 -15 -2 -16 -13 -1
-18 24 -72 49 -107 49 -66 0 -106 -38 -216 -205 -83 -125 -87 -136 -68 -181 9
-21 30 -51 47 -67 l31 -29 -52 -46 c-80 -72 -116 -177 -75 -218 32 -31 97 -52
188 -58 50 -3 146 -19 215 -36 155 -37 357 -66 395 -56 39 10 91 65 103 110 9
32 7 53 -14 129 -55 200 -55 226 -3 247 24 10 44 11 102 1 40 -7 79 -14 87
-15 23 -3 14 -41 -37 -149 -38 -82 -45 -105 -40 -139 7 -49 29 -75 76 -88 43
-11 265 -15 337 -5 30 4 54 3 57 -2 4 -6 -2 -31 -12 -58 -14 -36 -16 -57 -10
-84 16 -67 12 -75 -53 -121 -194 -135 -427 -344 -586 -525 -71 -80 -253 -355
-319 -480 -60 -116 -116 -247 -168 -395 -127 -365 -175 -839 -121 -1184 9 -55
14 -107 11 -116 -3 -8 -36 -30 -74 -47 -80 -38 -171 -116 -196 -170 -10 -21
-31 -55 -46 -76 -57 -79 -59 -158 -5 -315 41 -123 89 -167 237 -218 65 -22 92
-25 220 -26 136 -2 147 -3 159 -22 7 -12 38 -64 68 -116 126 -219 336 -493
504 -656 414 -401 843 -656 1383 -822 262 -80 474 -125 655 -138 126 -9 120
-5 120 -78 0 -61 -7 -79 -210 -525 -116 -255 -208 -466 -206 -469 2 -4 84 -36
181 -72 l176 -65 -6 -70 c-21 -231 -115 -662 -200 -920 -106 -322 -196 -515
-280 -601 -102 -103 -211 -142 -465 -164 -287 -24 -390 -73 -464 -218 -52
-102 -44 -163 26 -202 l41 -23 -46 -17 c-154 -59 -186 -142 -112 -289 68 -135
169 -210 317 -233 l77 -11 -24 -25 c-45 -44 -33 -101 42 -208 49 -71 100 -115
170 -146 64 -29 175 -29 256 0 60 22 67 20 40 -10 -48 -53 0 -135 112 -188
205 -98 403 -91 511 17 l34 34 0 -58 c0 -113 59 -160 211 -170 153 -10 306 26
421 100 77 49 139 105 262 236 427 455 669 863 956 1611 28 74 55 138 58 142
4 3 54 -23 112 -59 371 -229 734 -347 1145 -371 194 -12 465 2 663 34 l32 5 0
-51 c0 -140 35 -328 85 -461 56 -145 175 -304 308 -410 398 -317 1126 -422
1980 -285 290 47 512 158 728 364 l76 72 5 -45 c8 -63 45 -108 121 -144 113
-54 396 -97 529 -80 74 9 111 25 146 62 l23 24 32 -32 c42 -42 121 -60 223
-50 196 18 283 79 284 198 l0 39 47 -41 c88 -79 192 -87 312 -26 122 61 160
123 161 259 l0 89 30 -42 c64 -88 141 -104 248 -50 102 50 169 150 213 314 30
108 32 402 5 540 -127 637 -604 1085 -1220 1147 l-121 12 22 65 c34 103 62
260 74 417 29 370 -66 784 -247 1087 -100 166 -312 400 -482 531 -183 140
-419 248 -657 300 -322 70 -729 67 -1220 -9 -152 -24 -461 -80 -497 -91 -13
-4 -18 4 -23 43 -19 145 -57 243 -140 359 -180 252 -446 322 -792 208 -90 -29
-336 -148 -355 -171 -23 -28 -16 -234 11 -323 26 -84 71 -178 109 -229 l25
-34 -39 7 c-155 28 -438 156 -639 288 -140 92 -426 304 -452 336 l-22 26 28
35 c80 104 256 432 305 571 80 225 110 340 148 560 20 119 23 168 22 405 0
249 -2 281 -26 410 -15 77 -34 181 -43 230 -9 50 -22 112 -30 139 -8 27 -15
51 -15 52 0 1 19 13 43 27 25 14 65 27 99 30 63 6 130 38 153 73 14 22 38 140
50 245 7 54 5 60 -60 192 -69 142 -122 216 -182 254 -28 17 -58 23 -147 28
-105 7 -116 5 -217 -24 -59 -17 -114 -31 -122 -31 -8 0 -33 28 -55 63 -144
219 -471 546 -740 740 -312 225 -807 454 -1157 537 -178 42 -393 80 -449 80
-20 0 -36 4 -36 9 0 12 116 118 188 172 31 24 98 82 147 129 50 48 107 97 127
109 50 30 124 114 138 157 16 46 -5 78 -68 106 -92 39 -181 55 -327 57 -77 1
-147 4 -156 7 -13 3 -8 13 22 43 59 59 52 114 -21 151 -51 26 -66 25 -147 -5
-92 -35 -105 -32 -120 30 -6 28 -12 84 -12 126 -1 85 -13 104 -83 134 -81 33
-174 8 -295 -83 -104 -76 -244 -194 -250 -208 -3 -8 -9 -14 -14 -14 -13 0 -11
192 3 266 10 54 9 76 -6 146 -10 46 -27 97 -37 115 -28 45 -100 78 -170 77
-68 -1 -108 -22 -222 -118 -43 -36 -92 -73 -109 -82 -16 -9 -59 -35 -95 -60
-74 -50 -181 -87 -244 -82 l-44 3 42 42 c23 23 64 53 91 67 55 28 108 83 118
122 13 53 -32 101 -103 111 -31 4 -55 -4 -131 -42z m653 -726 c50 -7 92 -14
93 -15 2 -1 -22 -32 -53 -69 -70 -83 -110 -162 -101 -199 7 -30 52 -61 110
-77 48 -13 112 -3 291 46 l128 35 30 -27 c35 -34 77 -113 77 -147 0 -20 -9
-30 -40 -46 -44 -22 -80 -80 -80 -128 0 -22 -12 -38 -60 -78 -101 -83 -172
-94 -265 -38 -32 20 -98 55 -145 79 -115 58 -122 67 -83 108 69 72 72 123 11
192 l-42 47 22 42 c24 45 28 77 12 107 -14 26 -99 67 -163 79 -65 13 -138 40
-132 50 3 4 24 11 47 14 24 4 68 16 98 26 59 21 90 21 245 -1z m-665 -141 c19
-76 24 -83 86 -102 32 -10 79 -20 104 -22 41 -2 45 -5 42 -26 -6 -47 10 -91
49 -133 l40 -44 -41 -76 c-35 -63 -41 -81 -36 -110 11 -57 50 -92 162 -145 57
-27 104 -53 104 -58 0 -11 -181 -76 -270 -97 -36 -8 -94 -21 -130 -29 -36 -9
-74 -18 -86 -21 -18 -6 -20 -3 -16 27 2 23 -7 52 -30 98 -54 106 -93 117 -326
96 l-93 -9 47 96 47 97 -18 46 c-11 30 -31 55 -58 75 -50 36 -181 79 -236 76
-52 -2 -61 8 -30 37 42 42 180 136 198 136 10 0 44 -9 77 -21 96 -33 192 -8
282 74 56 52 92 77 109 77 7 0 17 -19 23 -42z m-1275 -220 c-23 -44 -55 -78
-74 -78 -11 0 -6 9 14 28 17 16 38 43 48 61 23 44 34 33 12 -11z m2766 -324
c18 -18 30 -37 26 -40 -4 -4 -28 -9 -55 -12 -37 -3 -52 0 -65 13 -23 22 -21
51 4 68 27 20 50 12 90 -29z m3385 -1855 c10 -41 12 -64 5 -77 -5 -10 -7 -29
-4 -41 9 -35 -29 -151 -55 -169 -33 -21 -35 -11 -6 30 53 74 54 226 3 377 -11
30 -19 57 -18 60 2 15 62 -127 75 -180z m-6656 -1998 c11 -30 30 -67 41 -83
11 -15 16 -28 10 -28 -23 0 -81 114 -81 158 0 23 6 13 30 -47z"/>
</g>
</svg>
