<?xml version="1.0" encoding="UTF-8" standalone="no"?>
<svg
   xmlns:dc="http://purl.org/dc/elements/1.1/"
   xmlns:cc="http://creativecommons.org/ns#"
   xmlns:rdf="http://www.w3.org/1999/02/22-rdf-syntax-ns#"
   xmlns:svg="http://www.w3.org/2000/svg"
   xmlns="http://www.w3.org/2000/svg"
   xmlns:sodipodi="http://sodipodi.sourceforge.net/DTD/sodipodi-0.dtd"
   xmlns:inkscape="http://www.inkscape.org/namespaces/inkscape"
   version="1.1"
   width="164.86633"
   height="164.86633"
   id="svg4"
   sodipodi:docname="Circle double border black filling white.svg"
   inkscape:version="1.0.2 (e86c870879, 2021-01-15, custom)">
  <metadata
     id="metadata10">
    <rdf:RDF>
      <cc:Work
         rdf:about="">
        <dc:format>image/svg+xml</dc:format>
        <dc:type
           rdf:resource="http://purl.org/dc/dcmitype/StillImage" />
        <dc:title></dc:title>
      </cc:Work>
    </rdf:RDF>
  </metadata>
  <defs
     id="defs8" />
  <sodipodi:namedview
     pagecolor="#ffffff"
     bordercolor="#666666"
     borderopacity="1"
     objecttolerance="10"
     gridtolerance="10"
     guidetolerance="10"
     inkscape:pageopacity="0"
     inkscape:pageshadow="2"
     inkscape:window-width="1920"
     inkscape:window-height="996"
     id="namedview6"
     showgrid="false"
     fit-margin-top="0"
     fit-margin-left="0"
     fit-margin-right="0"
     fit-margin-bottom="0"
     inkscape:zoom="4.145"
     inkscape:cx="91.103159"
     inkscape:cy="78.447202"
     inkscape:window-x="-8"
     inkscape:window-y="1"
     inkscape:window-maximized="1"
     inkscape:current-layer="svg4" />
  <path
     id="path34"
     style="fill:#ffffff;stroke:#000000;stroke-width:6;stroke-miterlimit:4;stroke-dasharray:none"
     d="M 82.068359 3 A 79.433167 79.433167 0 0 0 3 82.433594 A 79.433167 79.433167 0 0 0 82.433594 161.86719 A 79.433167 79.433167 0 0 0 161.86719 82.433594 A 79.433167 79.433167 0 0 0 82.433594 3 A 79.433167 79.433167 0 0 0 82.068359 3 z M 82.457031 25.222656 C 114.04419 25.235866 139.64453 50.84646 139.64453 82.433594 C 139.64453 114.02074 114.04419 139.63132 82.457031 139.64453 C 50.851193 139.65773 25.222656 114.03942 25.222656 82.433594 C 25.222656 50.827778 50.851193 25.209442 82.457031 25.222656 z " />
</svg>
