<?xml version="1.0" encoding="UTF-8"?>
<!DOCTYPE svg PUBLIC "-//W3C//DTD SVG 1.1//EN" "http://www.w3.org/Graphics/SVG/1.1/DTD/svg11.dtd">
<!-- Creator: CorelDRAW 2017 -->
<svg xmlns="http://www.w3.org/2000/svg" xml:space="preserve" width="84.6666mm" height="84.6666mm" version="1.1" style="shape-rendering:geometricPrecision; text-rendering:geometricPrecision; image-rendering:optimizeQuality; fill-rule:evenodd; clip-rule:evenodd"
viewBox="0 0 8467 8467"
 xmlns:xlink="http://www.w3.org/1999/xlink">
 <defs>
  <style type="text/css">
   <![CDATA[
    .str0 {stroke:#2B2A29;stroke-width:150}
    .fil0 {fill:none}
    .fil1 {fill:#2B2A29}
   ]]>
  </style>
 </defs>
 <g id="Layer_x0020_1">
  <metadata id="CorelCorpID_0Corel-Layer"/>
  <rect class="fil0 str0" x="609" y="1870" width="7250" height="4727" rx="2" ry="2"/>
  <path class="fil1" d="M2672 5403c0,0 -26,335 -524,464 -498,129 -704,189 -679,730l1937 0 1336 0 2240 0c0,0 119,-565 -287,-783 -406,-218 -773,-267 -1010,-575l30 -307c0,0 158,-267 178,-367 0,0 118,-103 147,-296 30,-193 -10,-272 -79,-253 0,0 -15,-203 40,-327 55,-124 74,-272 45,-312 -30,-40 -74,0 -74,0 0,0 40,-158 15,-238 0,0 -5,168 -84,144 0,0 -74,-381 -431,-471 0,0 50,69 20,168 0,0 -139,-149 -376,-238 -238,-89 -396,99 -396,99 0,0 139,-20 198,69 0,0 -367,40 -466,277 0,0 30,-20 129,0 0,0 -238,129 -208,535 0,0 10,-59 50,-149 0,0 20,386 40,475 0,0 -99,-59 -99,119 0,178 30,406 139,436 0,0 89,228 178,297 0,0 59,317 -30,446 -89,129 -505,307 -644,317 -38,3 -113,27 -197,74 -194,-148 -251,-329 -251,-329 0,0 137,-9 206,-26 0,0 26,-26 -60,-94 0,0 223,17 361,-77 0,0 -94,-34 -120,-103 0,0 283,-43 266,-232 0,0 -283,86 -232,-352 51,-438 155,-1529 -782,-1572 -936,-43 -1039,670 -953,1537 0,0 94,412 -223,395 0,0 -17,198 232,206 0,0 60,120 -86,120 0,0 146,103 352,52 0,0 17,103 -77,112 0,0 60,17 232,26z"/>
  <rect class="fil0" width="8467" height="8467"/>
 </g>
</svg>
