<?xml version="1.0" encoding="UTF-8"?>
<!DOCTYPE svg PUBLIC "-//W3C//DTD SVG 1.1//EN" "http://www.w3.org/Graphics/SVG/1.1/DTD/svg11.dtd">
<!-- Creator: CorelDRAW 2017 -->
<svg xmlns="http://www.w3.org/2000/svg" xml:space="preserve" width="84.6666mm" height="84.6666mm" version="1.1" style="shape-rendering:geometricPrecision; text-rendering:geometricPrecision; image-rendering:optimizeQuality; fill-rule:evenodd; clip-rule:evenodd"
viewBox="0 0 8467 8467"
 xmlns:xlink="http://www.w3.org/1999/xlink">
 <defs>
  <style type="text/css">
   <![CDATA[
    .str0 {stroke:#2B2A29;stroke-width:150}
    .fil0 {fill:none}
    .fil1 {fill:#2B2A29}
   ]]>
  </style>
 </defs>
 <g id="Layer_x0020_1">
  <metadata id="CorelCorpID_0Corel-Layer"/>
  <rect class="fil0 str0" x="1411" y="1411" width="5644" height="5644" rx="28" ry="43"/>
  <path class="fil1" d="M3687 5241c0,0 -32,406 -657,562 -624,156 -883,229 -850,884l4101 0c0,0 129,-739 -592,-822 -721,-83 -893,-614 -893,-614 0,0 172,-10 258,-31 0,0 32,-31 -75,-114 0,0 280,21 452,-94 0,0 -118,-42 -151,-125 0,0 355,-52 334,-281 0,0 -355,104 -291,-427 65,-531 194,-1852 -980,-1904 -1173,-52 -1302,812 -1195,1862 0,0 118,499 -280,479 0,0 -22,239 291,250 0,0 75,146 -108,146 0,0 183,125 441,62 0,0 21,125 -97,135 0,0 75,21 291,31z"/>
  <rect class="fil0" width="8467" height="8467"/>
 </g>
</svg>
